<?xml version="1.0" encoding="utf-8"?>
<!-- Generator: Adobe Illustrator 16.0.0, SVG Export Plug-In . SVG Version: 6.00 Build 0)  -->
<!DOCTYPE svg PUBLIC "-//W3C//DTD SVG 1.1//EN" "http://www.w3.org/Graphics/SVG/1.1/DTD/svg11.dtd">
<svg version="1.1" id="Layer_1" xmlns="http://www.w3.org/2000/svg" xmlns:xlink="http://www.w3.org/1999/xlink" x="0px" y="0px"
	 width="34.404px" height="29.21px" viewBox="0 0 34.404 29.21" enable-background="new 0 0 34.404 29.21" xml:space="preserve">
<linearGradient id="SVGID_1_" gradientUnits="userSpaceOnUse" x1="-2.1316" y1="5.3081" x2="38.3684" y2="28.0581">
	<stop  offset="0" style="stop-color:#FFFFFF"/>
	<stop  offset="1" style="stop-color:#B4B3B3"/>
</linearGradient>
<path fill="url(#SVGID_1_)" d="M28.366,7.291C27.052,3.066,23.111,0,18.456,0c-4.58,0-8.46,2.97-9.838,7.085
	C7.859,6.749,7.021,6.558,6.138,6.558C2.748,6.558,0,9.306,0,12.694c0,0.953,0.227,1.852,0.611,2.656
	c-0.389,1.089-0.61,2.257-0.61,3.479c0,5.73,4.647,10.379,10.38,10.379c3.229,0,6.113-1.477,8.019-3.787
	c1.623,1.05,3.552,1.666,5.627,1.666c5.73,0,10.379-4.646,10.379-10.379C34.403,12.528,31.927,8.936,28.366,7.291z"/>
</svg>
