<?xml version="1.0" encoding="utf-8"?>
<!-- Generator: Adobe Illustrator 16.0.0, SVG Export Plug-In . SVG Version: 6.00 Build 0)  -->
<!DOCTYPE svg PUBLIC "-//W3C//DTD SVG 1.1//EN" "http://www.w3.org/Graphics/SVG/1.1/DTD/svg11.dtd">
<svg version="1.1" id="Layer_1" xmlns="http://www.w3.org/2000/svg" xmlns:xlink="http://www.w3.org/1999/xlink" x="0px" y="0px"
	 width="34.832px" height="28.436px" viewBox="0 0 34.832 28.436" enable-background="new 0 0 34.832 28.436" xml:space="preserve">
<linearGradient id="SVGID_1_" gradientUnits="userSpaceOnUse" x1="-5.3843" y1="1.968" x2="42.5674" y2="25.8582">
	<stop  offset="0" style="stop-color:#FFFFFF"/>
	<stop  offset="1" style="stop-color:#B4B3B3"/>
</linearGradient>
<path fill="url(#SVGID_1_)" d="M32.336,14.032c1.109-1.427,1.777-3.214,1.777-5.158c0-4.646-3.764-8.408-8.407-8.408
	c-2.252,0-4.292,0.891-5.802,2.333C18.555,1.096,16.474,0,14.131,0c-2.976,0-5.533,1.769-6.695,4.31
	C6.926,4.164,6.39,4.081,5.833,4.081C2.612,4.081,0,6.693,0,9.914c0,2.545,1.633,4.703,3.906,5.5
	c-0.194,0.799-0.308,1.629-0.308,2.485c0,5.817,4.717,10.534,10.533,10.534c3.233,0,6.123-1.46,8.057-3.752
	c1.338,1.375,3.207,2.232,5.277,2.232c4.069,0,7.366-3.298,7.366-7.367C34.832,17.351,33.863,15.383,32.336,14.032z"/>
</svg>
