<?xml version="1.0" encoding="utf-8"?>
<!-- Generator: Adobe Illustrator 16.0.0, SVG Export Plug-In . SVG Version: 6.00 Build 0)  -->
<!DOCTYPE svg PUBLIC "-//W3C//DTD SVG 1.1//EN" "http://www.w3.org/Graphics/SVG/1.1/DTD/svg11.dtd">
<svg version="1.1" id="Layer_1" xmlns="http://www.w3.org/2000/svg" xmlns:xlink="http://www.w3.org/1999/xlink" x="0px" y="0px"
	 width="47.268px" height="38.053px" viewBox="0 0 47.268 38.053" enable-background="new 0 0 47.268 38.053" xml:space="preserve">
<linearGradient id="SVGID_1_" gradientUnits="userSpaceOnUse" x1="-5.6296" y1="7.8113" x2="50.0583" y2="28.6941">
	<stop  offset="0" style="stop-color:#FFFFFF"/>
	<stop  offset="1" style="stop-color:#B4B3B3"/>
</linearGradient>
<path fill="url(#SVGID_1_)" d="M43.74,12.265c-0.058-0.049-0.114-0.089-0.173-0.136c0.52-2.002-0.061-4.212-1.722-5.671
	c-1.895-1.665-4.577-1.812-6.631-0.583c-0.587-1.221-1.424-2.348-2.506-3.298c-4.087-3.592-10.2-3.384-14.046,0.33
	c-2.518-1.656-5.922-1.272-7.969,1.056C9.57,5.244,9.078,6.86,9.185,8.435c-2.466,0.284-4.84,1.438-6.604,3.448
	C-1.202,16.19-0.777,22.749,3.53,26.532c1.842,1.617,4.095,2.458,6.366,2.56c0.926,2.945,3.63,5.068,6.805,5.173
	c0.401,2.11,2.289,3.664,4.497,3.556c1.215-0.06,2.286-0.61,3.04-1.446c1.37,1.121,3.14,1.765,5.046,1.67
	c4.039-0.199,7.157-3.601,7.03-7.627c3.071,0.168,6.185-1.015,8.372-3.504C48.47,22.606,48.045,16.047,43.74,12.265z"/>
</svg>
