<?xml version="1.0" standalone="no"?><!DOCTYPE svg PUBLIC "-//W3C//DTD SVG 1.1//EN" "http://www.w3.org/Graphics/SVG/1.1/DTD/svg11.dtd"><svg class="icon" style="" viewBox="0 0 1024 1024" version="1.1" xmlns="http://www.w3.org/2000/svg" p-id="1494" xmlns:xlink="http://www.w3.org/1999/xlink" width="200" height="200"><defs><style type="text/css"><![CDATA[

]]></style></defs><path d="M259.79519 638.793573l242.327769 0L502.122959 387.131845 259.79519 387.131845 259.79519 638.793573zM68.031838 410.059278l0 201.398955c0 33.014288 22.249949 27.336555 22.249949 27.336555l107.187272 0L197.46906 387.131845 86.688809 387.131845C86.688809 387.131845 68.031838 386.540718 68.031838 410.059278zM946.139165 488.564757c-30.754385-30.050142-328.927788-250.631514-328.927788-250.631514s-34.346147-33.971524-34.346147 16.959003c0 51.03148 0 132.239599 0 132.239599s-0.130145 0-0.36246 0L582.502771 638.793573c0.031624 0 0.049869 0 0.049869 0s0 98.946776 0 140.90702c0 41.76077 33.127405 5.452715 33.127405 5.452715l327.9219-253.899738C943.601944 531.253571 968.549667 510.374402 946.139165 488.564757z" p-id="1495" fill="#ffffff"></path></svg>